<svg xmlns="http://www.w3.org/2000/svg" width="1920" height="450"><path fill="#fff7c6" stroke="#fff7c6" stroke-width="1.51" d="M-20-251l185-18 85-9z"/><path fill="#ffd08a" stroke="#ffd08a" stroke-width="1.51" d="M596-280l306 5 285-2z"/><path fill="#f4ab73" stroke="#f4ab73" stroke-width="1.51" d="M1187-277l294 27 272-8z"/><path fill="#ae4a0b" stroke="#ae4a0b" stroke-width="1.51" d="M1381 689l-612 42 1011-52z"/><path fill="#cd9363" stroke="#cd9363" stroke-width="1.51" d="M1753-258l194 64 110 22z"/><path fill="#9d3905" stroke="#9d3905" stroke-width="1.51" d="M1914 580l154 41 27-260z"/><path fill="#af4508" stroke="#af4508" stroke-width="1.51" d="M1930 331l-16 249 181-219z"/><path fill="#ba7024" stroke="#ba7024" stroke-width="1.51" d="M2080 30l-93 54 108 179z"/><path fill="#b6742a" stroke="#b6742a" stroke-width="1.51" d="M2080 30l15 233 17-290z"/><path fill="#973706" stroke="#973706" stroke-width="1.51" d="M2095 361l-27 260 64-42z"/><path fill="#b15713" stroke="#b15713" stroke-width="1.51" d="M2112-27l-17 290 37 316z"/><path fill="#a6450b" stroke="#a6450b" stroke-width="1.51" d="M2095 263v98l37 218z"/><path fill="#bf8345" stroke="#bf8345" stroke-width="1.51" d="M1898-77l182 107 32-57z"/><path fill="#c18951" stroke="#c18951" stroke-width="1.51" d="M2057-172l-159 95 214 50z"/><path fill="#bf671a" stroke="#bf671a" stroke-width="1.51" d="M1987 84l-107 167 215 12z"/><path fill="#bd5b12" stroke="#bd5b12" stroke-width="1.51" d="M1880 251l50 80 165-68z"/><path fill="#b4520f" stroke="#b4520f" stroke-width="1.51" d="M1930 331l165 30v-98z"/><path fill="#c78f5a" stroke="#c78f5a" stroke-width="1.51" d="M1947-194l-49 117 159-95z"/><path fill="#c2813d" stroke="#c2813d" stroke-width="1.51" d="M1898-77l89 161 93-54z"/><path fill="#8e3105" stroke="#8e3105" stroke-width="1.51" d="M1914 580l45 74 109-33z"/><path fill="#cd6e1c" stroke="#cd6e1c" stroke-width="1.51" d="M1830 55v182l50 14z"/><path fill="#b44204" stroke="#b44204" stroke-width="1.51" d="M1741 511l173 69 16-249z"/><path fill="#ca833c" stroke="#ca833c" stroke-width="1.51" d="M1898-77l-68 132 157 29z"/><path fill="#c87524" stroke="#c87524" stroke-width="1.51" d="M1830 55l50 196 107-167z"/><path fill="#a43b05" stroke="#a43b05" stroke-width="1.51" d="M1659 635l-278 54 399-10z"/><path fill="#c35009" stroke="#c35009" stroke-width="1.51" d="M1759 318l-18 193 189-180z"/><path fill="#933305" stroke="#933305" stroke-width="1.51" d="M1914 580l-134 99 179-25z"/><path fill="#d09258" stroke="#d09258" stroke-width="1.51" d="M1767-129l131 52 49-117z"/><path fill="#d69762" stroke="#d69762" stroke-width="1.51" d="M1753-258l14 129 180-65z"/><path fill="#c65b0f" stroke="#c65b0f" stroke-width="1.51" d="M1880 251l-121 67 171 13z"/><path fill="#a23804" stroke="#a23804" stroke-width="1.51" d="M1741 511l39 168 134-99z"/><path fill="#cb6112" stroke="#cb6112" stroke-width="1.51" d="M1830 237l-71 81 121-67z"/><path fill="#d28e4c" stroke="#d28e4c" stroke-width="1.51" d="M1767-129l63 184 68-132z"/><path fill="#b85812" stroke="#b85812" stroke-width="1.51" d="M1147 640l-378 91 612-42z"/><path fill="#eba36d" stroke="#eba36d" stroke-width="1.51" d="M1481-250l98 33 174-41z"/><path fill="#d46813" stroke="#d46813" stroke-width="1.51" d="M1614 188l145 130 71-81z"/><path fill="#dd8a36" stroke="#dd8a36" stroke-width="1.51" d="M1628-37l-44 160 246-68z"/><path fill="#d57620" stroke="#d57620" stroke-width="1.51" d="M1614 188l216 49V55z"/><path fill="#dc8026" stroke="#dc8026" stroke-width="1.51" d="M1584 123l30 65 216-133z"/><path fill="#da914b" stroke="#da914b" stroke-width="1.51" d="M1767-129l-139 92 202 92z"/><path fill="#c84f06" stroke="#c84f06" stroke-width="1.51" d="M1615 425l126 86 18-193z"/><path fill="#e19d65" stroke="#e19d65" stroke-width="1.51" d="M1753-258l-174 41 188 88z"/><path fill="#a63a04" stroke="#a63a04" stroke-width="1.51" d="M1741 511l-82 124 121 44z"/><path fill="#e49c5b" stroke="#e49c5b" stroke-width="1.51" d="M1579-217l49 180 139-92z"/><path fill="#b23f04" stroke="#b23f04" stroke-width="1.51" d="M1609 571l50 64 82-124z"/><path fill="#d6620f" stroke="#d6620f" stroke-width="1.51" d="M1614 188l1 237 144-107z"/><path fill="#af4205" stroke="#af4205" stroke-width="1.51" d="M1443 631l-62 58 278-54z"/><path fill="#c14603" stroke="#c14603" stroke-width="1.51" d="M1615 425l-6 146 132-60z"/><path fill="#c54803" stroke="#c54803" stroke-width="1.51" d="M1521 539l88 32 6-146z"/><path fill="#dc600c" stroke="#dc600c" stroke-width="1.51" d="M1614 188l-122 220 123 17z"/><path fill="#ec9f59" stroke="#ec9f59" stroke-width="1.51" d="M1579-217L1470-86l158 49z"/><path fill="#e68d34" stroke="#e68d34" stroke-width="1.51" d="M1519 100l65 23 44-160z"/><path fill="#b24003" stroke="#b24003" stroke-width="1.51" d="M1609 571l-166 60 216 4z"/><path fill="#bc4504" stroke="#bc4504" stroke-width="1.51" d="M1521 539l-78 92 166-60z"/><path fill="#e57115" stroke="#e57115" stroke-width="1.51" d="M1454 174l38 234 122-220z"/><path fill="#eb9746" stroke="#eb9746" stroke-width="1.51" d="M1470-86l49 186 109-137z"/><path fill="#d05104" stroke="#d05104" stroke-width="1.51" d="M1492 408l29 131 94-114z"/><path fill="#e77f21" stroke="#e77f21" stroke-width="1.51" d="M1584 123l-130 51 160 14z"/><path fill="#f0a666" stroke="#f0a666" stroke-width="1.51" d="M1481-250l-11 164 109-131z"/><path fill="#e98626" stroke="#e98626" stroke-width="1.51" d="M1519 100l-65 74 130-51z"/><path fill="#bc6419" stroke="#bc6419" stroke-width="1.51" d="M833 689l-64 42 378-91z"/><path fill="#f07e1b" stroke="#f07e1b" stroke-width="1.51" d="M1327 189l-48 153 175-168z"/><path fill="#fbb375" stroke="#fbb375" stroke-width="1.51" d="M1187-277l97 73 197-46z"/><path fill="#e86f14" stroke="#e86f14" stroke-width="1.51" d="M1454 174l-175 168 213 66z"/><path fill="#ef973e" stroke="#ef973e" stroke-width="1.51" d="M1470-86l-155 188 204-2z"/><path fill="#ed8c29" stroke="#ed8c29" stroke-width="1.51" d="M1315 102l139 72 65-74z"/><path fill="#d35405" stroke="#d35405" stroke-width="1.51" d="M1492 408l-134 82 163 49z"/><path fill="#c54d06" stroke="#c54d06" stroke-width="1.51" d="M1358 490l85 141 78-92z"/><path fill="#f4a350" stroke="#f4a350" stroke-width="1.51" d="M1313-96l2 198 155-188z"/><path fill="#f4a962" stroke="#f4a962" stroke-width="1.51" d="M1313-96l157 10 11-164z"/><path fill="#f8af6b" stroke="#f8af6b" stroke-width="1.51" d="M1284-204l29 108 168-154z"/><path fill="#df610d" stroke="#df610d" stroke-width="1.51" d="M1279 342l79 148 134-82z"/><path fill="#c26115" stroke="#c26115" stroke-width="1.51" d="M1004 631l-171 58 314-49z"/><path fill="#f18b27" stroke="#f18b27" stroke-width="1.51" d="M1315 102l12 87 127-15z"/><path fill="#be4b07" stroke="#be4b07" stroke-width="1.51" d="M1358 490l23 199 62-58z"/><path fill="#e0630d" stroke="#e0630d" stroke-width="1.51" d="M1279 342l-43 138 122 10z"/><path fill="#cb5409" stroke="#cb5409" stroke-width="1.51" d="M1358 490l-122-10 145 209z"/><path fill="#c5540b" stroke="#c5540b" stroke-width="1.51" d="M1236 480l-89 160 234 49z"/><path fill="#ffc683" stroke="#ffc683" stroke-width="1.51" d="M902-275l81 27 204-29z"/><path fill="#f9a549" stroke="#f9a549" stroke-width="1.51" d="M1313-96L1145 26l170 76z"/><path fill="#fbb05b" stroke="#fbb05b" stroke-width="1.51" d="M1177-116l-32 142 168-122z"/><path fill="#f58e28" stroke="#f58e28" stroke-width="1.51" d="M1315 102l-112 98 124-11z"/><path fill="#f4811d" stroke="#f4811d" stroke-width="1.51" d="M1203 200l76 142 48-153z"/><path fill="#fcb266" stroke="#fcb266" stroke-width="1.51" d="M1284-204l-107 88 136 20z"/><path fill="#f79b32" stroke="#f79b32" stroke-width="1.51" d="M1145 26l58 174 112-98z"/><path fill="#e86d13" stroke="#e86d13" stroke-width="1.51" d="M1129 377l107 103 43-138z"/><path fill="#f17c1a" stroke="#f17c1a" stroke-width="1.51" d="M1203 200l-74 177 150-35z"/><path fill="#feb871" stroke="#feb871" stroke-width="1.51" d="M1187-277l-10 161 107-88z"/><path fill="#d46210" stroke="#d46210" stroke-width="1.51" d="M997 529l150 111 89-160z"/><path fill="#e46b12" stroke="#e46b12" stroke-width="1.51" d="M1129 377L997 529l239-49z"/><path fill="#fdb55e" stroke="#fdb55e" stroke-width="1.51" d="M1082-95l63 121 32-142z"/><path fill="#ffbb6e" stroke="#ffbb6e" stroke-width="1.51" d="M1082-95l95-21 10-161z"/><path fill="#ffc177" stroke="#ffc177" stroke-width="1.51" d="M983-248l99 153 105-182z"/><path fill="#f68720" stroke="#f68720" stroke-width="1.51" d="M1025 252l104 125 74-177z"/><path fill="#faa336" stroke="#faa336" stroke-width="1.51" d="M1145 26l-126 60 184 114z"/><path fill="#fb992c" stroke="#fb992c" stroke-width="1.51" d="M1019 86l6 166 178-52z"/><path fill="#ea7517" stroke="#ea7517" stroke-width="1.51" d="M986 389l11 140 132-152z"/><path fill="#fdb251" stroke="#fdb251" stroke-width="1.51" d="M1082-95l-63 181 126-60z"/><path fill="#cc6213" stroke="#cc6213" stroke-width="1.51" d="M997 529l7 102 143 9z"/><path fill="#f4811d" stroke="#f4811d" stroke-width="1.51" d="M1025 252l-39 137 143-12z"/><path fill="#ffbb5c" stroke="#ffbb5c" stroke-width="1.51" d="M885-73l134 159 63-181z"/><path fill="#ffc46f" stroke="#ffc46f" stroke-width="1.51" d="M983-248L885-73l197-22z"/><path fill="#ffb64b" stroke="#ffb64b" stroke-width="1.51" d="M885-73l22 203 112-44z"/><path fill="#f98d23" stroke="#f98d23" stroke-width="1.51" d="M918 249l68 140 39-137z"/><path fill="#fea333" stroke="#fea333" stroke-width="1.51" d="M1019 86l-112 44 118 122z"/><path fill="#fe9c2c" stroke="#fe9c2c" stroke-width="1.51" d="M907 130l11 119 107 3z"/><path fill="#f78b23" stroke="#f78b23" stroke-width="1.51" d="M918 249l-45 110 113 30z"/><path fill="#e67517" stroke="#e67517" stroke-width="1.51" d="M986 389L866 536l131-7z"/><path fill="#ffcc7c" stroke="#ffcc7c" stroke-width="1.51" d="M902-275L885-73l98-175z"/><path fill="#ec801e" stroke="#ec801e" stroke-width="1.51" d="M873 359l-7 177 120-147z"/><path fill="#d56c16" stroke="#d56c16" stroke-width="1.51" d="M997 529l-131 7 138 95z"/><path fill="#cb6b19" stroke="#cb6b19" stroke-width="1.51" d="M866 536l-33 153 171-58z"/><path fill="#ffebae" stroke="#ffebae" stroke-width="1.51" d="M250-278l231 23 115-25z"/><path fill="#ffd98f" stroke="#ffd98f" stroke-width="1.51" d="M596-280l183 72 123-67z"/><path fill="#ffd07e" stroke="#ffd07e" stroke-width="1.51" d="M779-208L885-73l17-202z"/><path fill="#ffaf3c" stroke="#ffaf3c" stroke-width="1.51" d="M785 127l-20 94 142-91z"/><path fill="#ffba4c" stroke="#ffba4c" stroke-width="1.51" d="M885-73L785 127l122 3z"/><path fill="#ffa434" stroke="#ffa434" stroke-width="1.51" d="M907 130l-142 91 153 28z"/><path fill="#fb992c" stroke="#fb992c" stroke-width="1.51" d="M765 221l108 138 45-110z"/><path fill="#bb7a35" stroke="#bb7a35" stroke-width="1.51" d="M549 657l-219 71 439 3z"/><path fill="#ffc864" stroke="#ffc864" stroke-width="1.51" d="M707-106l78 233L885-73z"/><path fill="#f08825" stroke="#f08825" stroke-width="1.51" d="M700 336l166 200 7-177z"/><path fill="#e98526" stroke="#e98526" stroke-width="1.51" d="M700 336l-21 208 187-8z"/><path fill="#fa9a2f" stroke="#fa9a2f" stroke-width="1.51" d="M765 221l-65 115 173 23z"/><path fill="#ffd179" stroke="#ffd179" stroke-width="1.51" d="M779-208l-72 102 178 33z"/><path fill="#d27521" stroke="#d27521" stroke-width="1.51" d="M679 544l154 145 33-153z"/><path fill="#c57223" stroke="#c57223" stroke-width="1.51" d="M679 544l90 187 64-42z"/><path fill="#c77a28" stroke="#c77a28" stroke-width="1.51" d="M679 544L549 657l220 74z"/><path fill="#ffcb61" stroke="#ffcb61" stroke-width="1.51" d="M707-106L553 36l232 91z"/><path fill="#feac3b" stroke="#feac3b" stroke-width="1.51" d="M638 281l127-60 20-94z"/><path fill="#ffbc48" stroke="#ffbc48" stroke-width="1.51" d="M553 36l85 245 147-154z"/><path fill="#fba336" stroke="#fba336" stroke-width="1.51" d="M638 281l62 55 65-115z"/><path fill="#ffdc89" stroke="#ffdc89" stroke-width="1.51" d="M596-280l111 174 72-102z"/><path fill="#eb8f2e" stroke="#eb8f2e" stroke-width="1.51" d="M572 478l107 66 21-208z"/><path fill="#ffd779" stroke="#ffd779" stroke-width="1.51" d="M596-94L553 36l154-142z"/><path fill="#ffc255" stroke="#ffc255" stroke-width="1.51" d="M553 36l-82 71 167 174z"/><path fill="#f19736" stroke="#f19736" stroke-width="1.51" d="M536 414l36 64 128-142z"/><path fill="#ffde88" stroke="#ffde88" stroke-width="1.51" d="M596-280v186l111-12z"/><path fill="#f89f38" stroke="#f89f38" stroke-width="1.51" d="M638 281L536 414l164-78z"/><path fill="#d98531" stroke="#d98531" stroke-width="1.51" d="M572 478l-23 179 130-113z"/><path fill="#c18341" stroke="#c18341" stroke-width="1.51" d="M410 660l-80 68 219-71z"/><path fill="#ffe498" stroke="#ffe498" stroke-width="1.51" d="M596-280l-115 25L596-94z"/><path fill="#fba845" stroke="#fba845" stroke-width="1.51" d="M444 233l92 181 102-133z"/><path fill="#ffb950" stroke="#ffb950" stroke-width="1.51" d="M471 107l-27 126 194 48z"/><path fill="#db8b3b" stroke="#db8b3b" stroke-width="1.51" d="M422 525l127 132 23-179z"/><path fill="#ffda7e" stroke="#ffda7e" stroke-width="1.51" d="M461-55l92 91 43-130z"/><path fill="#ffe291" stroke="#ffe291" stroke-width="1.51" d="M481-255L461-55l135-39z"/><path fill="#faaa4d" stroke="#faaa4d" stroke-width="1.51" d="M444 233l-52 107 144 74z"/><path fill="#eb933e" stroke="#eb933e" stroke-width="1.51" d="M536 414L422 525l150-47z"/><path fill="#d0873f" stroke="#d0873f" stroke-width="1.51" d="M422 525l-12 135 139-3z"/><path fill="#ffd472" stroke="#ffd472" stroke-width="1.51" d="M461-55l10 162 82-71z"/><path fill="#f19d47" stroke="#f19d47" stroke-width="1.51" d="M392 340l30 185 114-111z"/><path fill="#ee9d4d" stroke="#ee9d4d" stroke-width="1.51" d="M392 340l-61 151 91 34z"/><path fill="#ffd676" stroke="#ffd676" stroke-width="1.51" d="M461-55L286 104l185 3z"/><path fill="#ffc965" stroke="#ffc965" stroke-width="1.51" d="M286 104l158 129 27-126z"/><path fill="#ffe89d" stroke="#ffe89d" stroke-width="1.51" d="M236-74l225 19 20-200z"/><path fill="#ffefaf" stroke="#ffefaf" stroke-width="1.51" d="M250-278L236-74l245-181z"/><path fill="#ffc667" stroke="#ffc667" stroke-width="1.51" d="M286 104l1 107 157 22z"/><path fill="#ffe08d" stroke="#ffe08d" stroke-width="1.51" d="M236-74l50 178L461-55z"/><path fill="#ffb85b" stroke="#ffb85b" stroke-width="1.51" d="M287 211l105 129 52-107z"/><path fill="#db9048" stroke="#db9048" stroke-width="1.51" d="M331 491l79 169 12-135z"/><path fill="#f4a655" stroke="#f4a655" stroke-width="1.51" d="M256 371l75 120 61-151z"/><path fill="#cd8b49" stroke="#cd8b49" stroke-width="1.51" d="M331 491l-1 237 80-68z"/><path fill="#fdb45d" stroke="#fdb45d" stroke-width="1.51" d="M287 211l-31 160 136-31z"/><path fill="#f3a659" stroke="#f3a659" stroke-width="1.51" d="M256 371l-106 35 181 85z"/><path fill="#eda05a" stroke="#eda05a" stroke-width="1.51" d="M150 406L80 545l251-54z"/><path fill="#d28f51" stroke="#d28f51" stroke-width="1.51" d="M82 621l248 107 1-237z"/><path fill="#df9959" stroke="#df9959" stroke-width="1.51" d="M80 545l2 76 249-130z"/><path fill="#c18c57" stroke="#c18c57" stroke-width="1.51" d="M82 621L26 727l304 1z"/><path fill="#fff2b7" stroke="#fff2b7" stroke-width="1.51" d="M165-269l71 195 14-204z"/><path fill="#ffde88" stroke="#ffde88" stroke-width="1.51" d="M236-74L152 90l134 14z"/><path fill="#ffd277" stroke="#ffd277" stroke-width="1.51" d="M152 90l27 113 107-99z"/><path fill="#ffca6f" stroke="#ffca6f" stroke-width="1.51" d="M286 104l-107 99 108 8z"/><path fill="#ffbd65" stroke="#ffbd65" stroke-width="1.51" d="M179 203l77 168 31-160z"/><path fill="#fff1b0" stroke="#fff1b0" stroke-width="1.51" d="M165-269L99-80l137 6z"/><path fill="#ffe79b" stroke="#ffe79b" stroke-width="1.51" d="M99-80l53 170 84-164z"/><path fill="#fdb464" stroke="#fdb464" stroke-width="1.51" d="M179 203l-29 203 106-35z"/><path fill="#ffe99f" stroke="#ffe99f" stroke-width="1.51" d="M99-80L16-53 152 90z"/><path fill="#fff7c0" stroke="#fff7c0" stroke-width="1.51" d="M-20-251L99-80l66-189z"/><path fill="#ffce78" stroke="#ffce78" stroke-width="1.51" d="M152 90L-3 245l182-42z"/><path fill="#ffbe6d" stroke="#ffbe6d" stroke-width="1.51" d="M-3 245l153 161 29-203z"/><path fill="#feb76e" stroke="#feb76e" stroke-width="1.51" d="M-3 245l-42 131 195 30z"/><path fill="#eea462" stroke="#eea462" stroke-width="1.51" d="M2 486l78 59 70-139z"/><path fill="#ffd682" stroke="#ffd682" stroke-width="1.51" d="M-49 99l46 146L152 90z"/><path fill="#ffe394" stroke="#ffe394" stroke-width="1.51" d="M16-53L-49 99l201-9z"/><path fill="#f5ac68" stroke="#f5ac68" stroke-width="1.51" d="M-45 376L2 486l148-80z"/><path fill="#fff4b7" stroke="#fff4b7" stroke-width="1.51" d="M-20-251L16-53l83-27z"/><path fill="#d49662" stroke="#d49662" stroke-width="1.51" d="M-119 494L26 727l56-106z"/><path fill="#e59f65" stroke="#e59f65" stroke-width="1.51" d="M2 486l-121 8L82 621z"/><path fill="#e09c60" stroke="#e09c60" stroke-width="1.51" d="M80 545L2 486l80 135z"/><path fill="#fff9c8" stroke="#fff9c8" stroke-width="1.51" d="M-152-172l27 66 105-145z"/><path fill="#fff6be" stroke="#fff6be" stroke-width="1.51" d="M-20-251l-105 145L16-53z"/><path fill="#ffecaa" stroke="#ffecaa" stroke-width="1.51" d="M-125-106l76 205L16-53z"/><path fill="#d29668" stroke="#d29668" stroke-width="1.51" d="M-119 494l-73 158 218 75z"/><path fill="#ffbf78" stroke="#ffbf78" stroke-width="1.51" d="M-133 266l88 110 42-131z"/><path fill="#ffe8a4" stroke="#ffe8a4" stroke-width="1.51" d="M-125-106l-52 185 128 20z"/><path fill="#ffcd81" stroke="#ffcd81" stroke-width="1.51" d="M-49 99l-84 167 130-21z"/><path fill="#f3a96c" stroke="#f3a96c" stroke-width="1.51" d="M-45 376l-74 118 121-8z"/><path fill="#ffd78c" stroke="#ffd78c" stroke-width="1.51" d="M-177 79l44 187 84-167z"/><path fill="#f7ae73" stroke="#f7ae73" stroke-width="1.51" d="M-200 391l81 103 74-118z"/><path fill="#ffb978" stroke="#ffb978" stroke-width="1.51" d="M-133 266l-67 125 155-15z"/><path fill="#eaa370" stroke="#eaa370" stroke-width="1.51" d="M-200 391l8 261 73-158z"/><path fill="#fff2ba" stroke="#fff2ba" stroke-width="1.51" d="M-152-172l-25 251 52-185z"/><path fill="#ffc883" stroke="#ffc883" stroke-width="1.51" d="M-177 79l-23 312 67-125z"/></svg>