<svg xmlns="http://www.w3.org/2000/svg" width="512" height="438.849"><g transform="translate(63.1 359.445)"><path fill="#292d3e" d="M412.363-359.445H-26.504c-20.24 0-36.595 16.298-36.595 36.538V42.867c0 20.165 16.36 36.538 36.6 36.538h438.87c20.11 0 36.54-16.373 36.54-36.538v-365.774c0-20.24-16.41-36.538-36.53-36.538z"/><path fill="#212532" d="M-26.533-269.27h438.868v310.5H-26.533z"/><ellipse cx="-8.292" cy="-312.213" fill="#ec6a5e" ry="18.776" rx="18.776"/><ellipse cx="36.431" cy="-312.213" fill="#f5bf4f" ry="18.776" rx="18.776"/><ellipse cx="81.006" cy="-312.213" fill="#62c755" ry="18.776" rx="18.776"/><path fill="#89ddff" d="M51.733-97.475l-66.548-29.583v-7.15l66.548-29.584v10.38l-52.477 22.78 52.477 22.777z"/><path fill="#f07178" d="M118.05-145.627h-.577q-2.422-.576-4.73-.807-2.248-.288-5.362-.288-5.01 0-9.68 2.25-4.67 2.19-8.99 5.708v45.73H77.86v-64.414H88.7v9.515q6.46-5.19 11.36-7.324 4.96-2.19 10.09-2.19 2.826 0 4.095.172 1.268.115 3.806.52zm67.01 19.895q0 8.074-2.308 14.532-2.25 6.46-6.113 10.842-4.1 4.555-9 6.862-4.9 2.25-10.79 2.25-5.48 0-9.58-1.327-4.095-1.27-8.074-3.46l-.693 2.998h-10.14v-89.73h10.84v32.064q4.556-3.75 9.69-6.12 5.13-2.42 11.532-2.42 11.417 0 17.99 8.76 6.633 8.76 6.633 24.74zm-11.19.29q0-11.535-3.805-17.474-3.806-5.998-12.283-5.998-4.728 0-9.572 2.076-4.845 2.02-8.997 5.248v36.907q4.614 2.076 7.9 2.883 3.346.807 7.555.807 8.996 0 14.07-5.882 5.133-5.94 5.133-18.568zm84.772-.578q0 7.843-2.25 14.36-2.248 6.458-6.343 10.956-3.81 4.267-9 6.63-5.13 2.308-10.9 2.308-5.02 0-9.11-1.096-4.04-1.095-8.25-3.402v26.988h-10.84v-88.172h10.84v6.747q4.32-3.64 9.69-6.06 5.42-2.48 11.53-2.48 11.65 0 18.1 8.82 6.516 8.76 6.516 24.39zm-11.188.288q0-11.648-3.98-17.415-3.978-5.767-12.224-5.767-4.67 0-9.4 2.02-4.73 2.017-9.054 5.304v36.503q4.614 2.076 7.9 2.826 3.346.74 7.555.74 9.06 0 14.13-6.11 5.08-6.12 5.08-18.11z"/><path fill="#89ddff" d="M314.463-182.764l-41.347 107.26h-9.976l41.174-107.26zm86.155 55.706L334.07-97.475v-10.38l52.477-22.778-52.477-22.78v-10.38l66.548 29.584z"/></g></svg>